%TF.GenerationSoftware,KiCad,Pcbnew,8.0.5*%
%TF.CreationDate,2024-10-01T21:11:03+02:00*%
%TF.ProjectId,ledConnector,6c656443-6f6e-46e6-9563-746f722e6b69,rev?*%
%TF.SameCoordinates,Original*%
%TF.FileFunction,Legend,Top*%
%TF.FilePolarity,Positive*%
%FSLAX46Y46*%
G04 Gerber Fmt 4.6, Leading zero omitted, Abs format (unit mm)*
G04 Created by KiCad (PCBNEW 8.0.5) date 2024-10-01 21:11:03*
%MOMM*%
%LPD*%
G01*
G04 APERTURE LIST*
%ADD10C,0.100000*%
%ADD11C,0.050000*%
%ADD12C,0.300000*%
%ADD13C,0.150000*%
%ADD14C,0.120000*%
G04 APERTURE END LIST*
D10*
X163500000Y-110524000D02*
X133500000Y-110524000D01*
X133500000Y-107500000D02*
X163500000Y-107500000D01*
D11*
X163500000Y-106500000D02*
X163500000Y-106500000D01*
D10*
X138500000Y-113024000D02*
X138500000Y-110524000D01*
X158500000Y-105000000D02*
X158500000Y-107500000D01*
D11*
X133500000Y-111524000D02*
X133500000Y-111524000D01*
D10*
X133500000Y-106000000D02*
X134500000Y-105000000D01*
X148500000Y-105000000D02*
X148500000Y-107500000D01*
X162500000Y-105000000D02*
X163500000Y-106000000D01*
X143500000Y-105000000D02*
X143500000Y-107500000D01*
X133500000Y-107500000D02*
X133500000Y-106000000D01*
X138500000Y-105000000D02*
X138500000Y-107500000D01*
X143500000Y-113024000D02*
X143500000Y-110524000D01*
X158500000Y-113024000D02*
X158500000Y-110524000D01*
X133500000Y-110524000D02*
X133500000Y-113024000D01*
X148500000Y-113024000D02*
X148500000Y-110524000D01*
X153500000Y-105000000D02*
X153500000Y-107500000D01*
X163500000Y-110524000D02*
X163500000Y-113024000D01*
X134500000Y-105000000D02*
X162500000Y-105000000D01*
X153500000Y-113024000D02*
X153500000Y-110524000D01*
X163500000Y-113024000D02*
X133500000Y-113024000D01*
X163500000Y-107500000D02*
X163500000Y-106000000D01*
D12*
X140535714Y-111095671D02*
X141035714Y-111809957D01*
X141392857Y-111095671D02*
X141392857Y-112595671D01*
X141392857Y-112595671D02*
X140821428Y-112595671D01*
X140821428Y-112595671D02*
X140678571Y-112524242D01*
X140678571Y-112524242D02*
X140607142Y-112452814D01*
X140607142Y-112452814D02*
X140535714Y-112309957D01*
X140535714Y-112309957D02*
X140535714Y-112095671D01*
X140535714Y-112095671D02*
X140607142Y-111952814D01*
X140607142Y-111952814D02*
X140678571Y-111881385D01*
X140678571Y-111881385D02*
X140821428Y-111809957D01*
X140821428Y-111809957D02*
X141392857Y-111809957D01*
X134571429Y-105428328D02*
X135071429Y-106928328D01*
X135071429Y-106928328D02*
X135571429Y-105428328D01*
X136071428Y-106356900D02*
X137214286Y-106356900D01*
X136642857Y-106928328D02*
X136642857Y-105785471D01*
X137428570Y-112595671D02*
X136928570Y-111095671D01*
X136928570Y-111095671D02*
X136428570Y-112595671D01*
X135928571Y-111667100D02*
X134785714Y-111667100D01*
X135357142Y-111095671D02*
X135357142Y-112238528D01*
X141464285Y-106928328D02*
X140964285Y-106214042D01*
X140607142Y-106928328D02*
X140607142Y-105428328D01*
X140607142Y-105428328D02*
X141178571Y-105428328D01*
X141178571Y-105428328D02*
X141321428Y-105499757D01*
X141321428Y-105499757D02*
X141392857Y-105571185D01*
X141392857Y-105571185D02*
X141464285Y-105714042D01*
X141464285Y-105714042D02*
X141464285Y-105928328D01*
X141464285Y-105928328D02*
X141392857Y-106071185D01*
X141392857Y-106071185D02*
X141321428Y-106142614D01*
X141321428Y-106142614D02*
X141178571Y-106214042D01*
X141178571Y-106214042D02*
X140607142Y-106214042D01*
X150892857Y-111881385D02*
X150678571Y-111809957D01*
X150678571Y-111809957D02*
X150607142Y-111738528D01*
X150607142Y-111738528D02*
X150535714Y-111595671D01*
X150535714Y-111595671D02*
X150535714Y-111381385D01*
X150535714Y-111381385D02*
X150607142Y-111238528D01*
X150607142Y-111238528D02*
X150678571Y-111167100D01*
X150678571Y-111167100D02*
X150821428Y-111095671D01*
X150821428Y-111095671D02*
X151392857Y-111095671D01*
X151392857Y-111095671D02*
X151392857Y-112595671D01*
X151392857Y-112595671D02*
X150892857Y-112595671D01*
X150892857Y-112595671D02*
X150750000Y-112524242D01*
X150750000Y-112524242D02*
X150678571Y-112452814D01*
X150678571Y-112452814D02*
X150607142Y-112309957D01*
X150607142Y-112309957D02*
X150607142Y-112167100D01*
X150607142Y-112167100D02*
X150678571Y-112024242D01*
X150678571Y-112024242D02*
X150750000Y-111952814D01*
X150750000Y-111952814D02*
X150892857Y-111881385D01*
X150892857Y-111881385D02*
X151392857Y-111881385D01*
X155357142Y-105428328D02*
X155714285Y-106928328D01*
X155714285Y-106928328D02*
X155999999Y-105856900D01*
X155999999Y-105856900D02*
X156285714Y-106928328D01*
X156285714Y-106928328D02*
X156642857Y-105428328D01*
X145607142Y-112524242D02*
X145750000Y-112595671D01*
X145750000Y-112595671D02*
X145964285Y-112595671D01*
X145964285Y-112595671D02*
X146178571Y-112524242D01*
X146178571Y-112524242D02*
X146321428Y-112381385D01*
X146321428Y-112381385D02*
X146392857Y-112238528D01*
X146392857Y-112238528D02*
X146464285Y-111952814D01*
X146464285Y-111952814D02*
X146464285Y-111738528D01*
X146464285Y-111738528D02*
X146392857Y-111452814D01*
X146392857Y-111452814D02*
X146321428Y-111309957D01*
X146321428Y-111309957D02*
X146178571Y-111167100D01*
X146178571Y-111167100D02*
X145964285Y-111095671D01*
X145964285Y-111095671D02*
X145821428Y-111095671D01*
X145821428Y-111095671D02*
X145607142Y-111167100D01*
X145607142Y-111167100D02*
X145535714Y-111238528D01*
X145535714Y-111238528D02*
X145535714Y-111738528D01*
X145535714Y-111738528D02*
X145821428Y-111738528D01*
X151107142Y-106142614D02*
X151321428Y-106214042D01*
X151321428Y-106214042D02*
X151392857Y-106285471D01*
X151392857Y-106285471D02*
X151464285Y-106428328D01*
X151464285Y-106428328D02*
X151464285Y-106642614D01*
X151464285Y-106642614D02*
X151392857Y-106785471D01*
X151392857Y-106785471D02*
X151321428Y-106856900D01*
X151321428Y-106856900D02*
X151178571Y-106928328D01*
X151178571Y-106928328D02*
X150607142Y-106928328D01*
X150607142Y-106928328D02*
X150607142Y-105428328D01*
X150607142Y-105428328D02*
X151107142Y-105428328D01*
X151107142Y-105428328D02*
X151250000Y-105499757D01*
X151250000Y-105499757D02*
X151321428Y-105571185D01*
X151321428Y-105571185D02*
X151392857Y-105714042D01*
X151392857Y-105714042D02*
X151392857Y-105856900D01*
X151392857Y-105856900D02*
X151321428Y-105999757D01*
X151321428Y-105999757D02*
X151250000Y-106071185D01*
X151250000Y-106071185D02*
X151107142Y-106142614D01*
X151107142Y-106142614D02*
X150607142Y-106142614D01*
X146392857Y-105499757D02*
X146250000Y-105428328D01*
X146250000Y-105428328D02*
X146035714Y-105428328D01*
X146035714Y-105428328D02*
X145821428Y-105499757D01*
X145821428Y-105499757D02*
X145678571Y-105642614D01*
X145678571Y-105642614D02*
X145607142Y-105785471D01*
X145607142Y-105785471D02*
X145535714Y-106071185D01*
X145535714Y-106071185D02*
X145535714Y-106285471D01*
X145535714Y-106285471D02*
X145607142Y-106571185D01*
X145607142Y-106571185D02*
X145678571Y-106714042D01*
X145678571Y-106714042D02*
X145821428Y-106856900D01*
X145821428Y-106856900D02*
X146035714Y-106928328D01*
X146035714Y-106928328D02*
X146178571Y-106928328D01*
X146178571Y-106928328D02*
X146392857Y-106856900D01*
X146392857Y-106856900D02*
X146464285Y-106785471D01*
X146464285Y-106785471D02*
X146464285Y-106285471D01*
X146464285Y-106285471D02*
X146178571Y-106285471D01*
X160535714Y-111238528D02*
X160607142Y-111167100D01*
X160607142Y-111167100D02*
X160821428Y-111095671D01*
X160821428Y-111095671D02*
X160964285Y-111095671D01*
X160964285Y-111095671D02*
X161178571Y-111167100D01*
X161178571Y-111167100D02*
X161321428Y-111309957D01*
X161321428Y-111309957D02*
X161392857Y-111452814D01*
X161392857Y-111452814D02*
X161464285Y-111738528D01*
X161464285Y-111738528D02*
X161464285Y-111952814D01*
X161464285Y-111952814D02*
X161392857Y-112238528D01*
X161392857Y-112238528D02*
X161321428Y-112381385D01*
X161321428Y-112381385D02*
X161178571Y-112524242D01*
X161178571Y-112524242D02*
X160964285Y-112595671D01*
X160964285Y-112595671D02*
X160821428Y-112595671D01*
X160821428Y-112595671D02*
X160607142Y-112524242D01*
X160607142Y-112524242D02*
X160535714Y-112452814D01*
X161464285Y-106785471D02*
X161392857Y-106856900D01*
X161392857Y-106856900D02*
X161178571Y-106928328D01*
X161178571Y-106928328D02*
X161035714Y-106928328D01*
X161035714Y-106928328D02*
X160821428Y-106856900D01*
X160821428Y-106856900D02*
X160678571Y-106714042D01*
X160678571Y-106714042D02*
X160607142Y-106571185D01*
X160607142Y-106571185D02*
X160535714Y-106285471D01*
X160535714Y-106285471D02*
X160535714Y-106071185D01*
X160535714Y-106071185D02*
X160607142Y-105785471D01*
X160607142Y-105785471D02*
X160678571Y-105642614D01*
X160678571Y-105642614D02*
X160821428Y-105499757D01*
X160821428Y-105499757D02*
X161035714Y-105428328D01*
X161035714Y-105428328D02*
X161178571Y-105428328D01*
X161178571Y-105428328D02*
X161392857Y-105499757D01*
X161392857Y-105499757D02*
X161464285Y-105571185D01*
X156642857Y-112595671D02*
X156285714Y-111095671D01*
X156285714Y-111095671D02*
X156000000Y-112167100D01*
X156000000Y-112167100D02*
X155714285Y-111095671D01*
X155714285Y-111095671D02*
X155357143Y-112595671D01*
D13*
X146633334Y-102528553D02*
X146633334Y-103028553D01*
X146633334Y-103028553D02*
X146600001Y-103128553D01*
X146600001Y-103128553D02*
X146533334Y-103195220D01*
X146533334Y-103195220D02*
X146433334Y-103228553D01*
X146433334Y-103228553D02*
X146366668Y-103228553D01*
X146966667Y-103161886D02*
X147000001Y-103195220D01*
X147000001Y-103195220D02*
X146966667Y-103228553D01*
X146966667Y-103228553D02*
X146933334Y-103195220D01*
X146933334Y-103195220D02*
X146966667Y-103161886D01*
X146966667Y-103161886D02*
X146966667Y-103228553D01*
X147300000Y-103228553D02*
X147300000Y-102528553D01*
X147700000Y-103228553D02*
X147400000Y-102828553D01*
X147700000Y-102528553D02*
X147300000Y-102928553D01*
X148100000Y-103228553D02*
X148033334Y-103195220D01*
X148033334Y-103195220D02*
X148000000Y-103161886D01*
X148000000Y-103161886D02*
X147966667Y-103095220D01*
X147966667Y-103095220D02*
X147966667Y-102895220D01*
X147966667Y-102895220D02*
X148000000Y-102828553D01*
X148000000Y-102828553D02*
X148033334Y-102795220D01*
X148033334Y-102795220D02*
X148100000Y-102761886D01*
X148100000Y-102761886D02*
X148200000Y-102761886D01*
X148200000Y-102761886D02*
X148266667Y-102795220D01*
X148266667Y-102795220D02*
X148300000Y-102828553D01*
X148300000Y-102828553D02*
X148333334Y-102895220D01*
X148333334Y-102895220D02*
X148333334Y-103095220D01*
X148333334Y-103095220D02*
X148300000Y-103161886D01*
X148300000Y-103161886D02*
X148266667Y-103195220D01*
X148266667Y-103195220D02*
X148200000Y-103228553D01*
X148200000Y-103228553D02*
X148100000Y-103228553D01*
X148633333Y-102761886D02*
X148633333Y-103461886D01*
X148633333Y-102795220D02*
X148700000Y-102761886D01*
X148700000Y-102761886D02*
X148833333Y-102761886D01*
X148833333Y-102761886D02*
X148900000Y-102795220D01*
X148900000Y-102795220D02*
X148933333Y-102828553D01*
X148933333Y-102828553D02*
X148966667Y-102895220D01*
X148966667Y-102895220D02*
X148966667Y-103095220D01*
X148966667Y-103095220D02*
X148933333Y-103161886D01*
X148933333Y-103161886D02*
X148900000Y-103195220D01*
X148900000Y-103195220D02*
X148833333Y-103228553D01*
X148833333Y-103228553D02*
X148700000Y-103228553D01*
X148700000Y-103228553D02*
X148633333Y-103195220D01*
X149566666Y-103228553D02*
X149566666Y-102861886D01*
X149566666Y-102861886D02*
X149533333Y-102795220D01*
X149533333Y-102795220D02*
X149466666Y-102761886D01*
X149466666Y-102761886D02*
X149333333Y-102761886D01*
X149333333Y-102761886D02*
X149266666Y-102795220D01*
X149566666Y-103195220D02*
X149500000Y-103228553D01*
X149500000Y-103228553D02*
X149333333Y-103228553D01*
X149333333Y-103228553D02*
X149266666Y-103195220D01*
X149266666Y-103195220D02*
X149233333Y-103128553D01*
X149233333Y-103128553D02*
X149233333Y-103061886D01*
X149233333Y-103061886D02*
X149266666Y-102995220D01*
X149266666Y-102995220D02*
X149333333Y-102961886D01*
X149333333Y-102961886D02*
X149500000Y-102961886D01*
X149500000Y-102961886D02*
X149566666Y-102928553D01*
X149999999Y-103228553D02*
X149933333Y-103195220D01*
X149933333Y-103195220D02*
X149899999Y-103128553D01*
X149899999Y-103128553D02*
X149899999Y-102528553D01*
X150566666Y-103228553D02*
X150566666Y-102861886D01*
X150566666Y-102861886D02*
X150533333Y-102795220D01*
X150533333Y-102795220D02*
X150466666Y-102761886D01*
X150466666Y-102761886D02*
X150333333Y-102761886D01*
X150333333Y-102761886D02*
X150266666Y-102795220D01*
X150566666Y-103195220D02*
X150500000Y-103228553D01*
X150500000Y-103228553D02*
X150333333Y-103228553D01*
X150333333Y-103228553D02*
X150266666Y-103195220D01*
X150266666Y-103195220D02*
X150233333Y-103128553D01*
X150233333Y-103128553D02*
X150233333Y-103061886D01*
X150233333Y-103061886D02*
X150266666Y-102995220D01*
X150266666Y-102995220D02*
X150333333Y-102961886D01*
X150333333Y-102961886D02*
X150500000Y-102961886D01*
X150500000Y-102961886D02*
X150566666Y-102928553D01*
X146633333Y-103655514D02*
X146699999Y-103655514D01*
X146699999Y-103655514D02*
X146766666Y-103688847D01*
X146766666Y-103688847D02*
X146799999Y-103722181D01*
X146799999Y-103722181D02*
X146833333Y-103788847D01*
X146833333Y-103788847D02*
X146866666Y-103922181D01*
X146866666Y-103922181D02*
X146866666Y-104088847D01*
X146866666Y-104088847D02*
X146833333Y-104222181D01*
X146833333Y-104222181D02*
X146799999Y-104288847D01*
X146799999Y-104288847D02*
X146766666Y-104322181D01*
X146766666Y-104322181D02*
X146699999Y-104355514D01*
X146699999Y-104355514D02*
X146633333Y-104355514D01*
X146633333Y-104355514D02*
X146566666Y-104322181D01*
X146566666Y-104322181D02*
X146533333Y-104288847D01*
X146533333Y-104288847D02*
X146499999Y-104222181D01*
X146499999Y-104222181D02*
X146466666Y-104088847D01*
X146466666Y-104088847D02*
X146466666Y-103922181D01*
X146466666Y-103922181D02*
X146499999Y-103788847D01*
X146499999Y-103788847D02*
X146533333Y-103722181D01*
X146533333Y-103722181D02*
X146566666Y-103688847D01*
X146566666Y-103688847D02*
X146633333Y-103655514D01*
X147100000Y-103655514D02*
X147566666Y-103655514D01*
X147566666Y-103655514D02*
X147266666Y-104355514D01*
X147833333Y-104288847D02*
X147866667Y-104322181D01*
X147866667Y-104322181D02*
X147833333Y-104355514D01*
X147833333Y-104355514D02*
X147800000Y-104322181D01*
X147800000Y-104322181D02*
X147833333Y-104288847D01*
X147833333Y-104288847D02*
X147833333Y-104355514D01*
X148133333Y-103722181D02*
X148166666Y-103688847D01*
X148166666Y-103688847D02*
X148233333Y-103655514D01*
X148233333Y-103655514D02*
X148400000Y-103655514D01*
X148400000Y-103655514D02*
X148466666Y-103688847D01*
X148466666Y-103688847D02*
X148500000Y-103722181D01*
X148500000Y-103722181D02*
X148533333Y-103788847D01*
X148533333Y-103788847D02*
X148533333Y-103855514D01*
X148533333Y-103855514D02*
X148500000Y-103955514D01*
X148500000Y-103955514D02*
X148100000Y-104355514D01*
X148100000Y-104355514D02*
X148533333Y-104355514D01*
X148966667Y-103655514D02*
X149033333Y-103655514D01*
X149033333Y-103655514D02*
X149100000Y-103688847D01*
X149100000Y-103688847D02*
X149133333Y-103722181D01*
X149133333Y-103722181D02*
X149166667Y-103788847D01*
X149166667Y-103788847D02*
X149200000Y-103922181D01*
X149200000Y-103922181D02*
X149200000Y-104088847D01*
X149200000Y-104088847D02*
X149166667Y-104222181D01*
X149166667Y-104222181D02*
X149133333Y-104288847D01*
X149133333Y-104288847D02*
X149100000Y-104322181D01*
X149100000Y-104322181D02*
X149033333Y-104355514D01*
X149033333Y-104355514D02*
X148966667Y-104355514D01*
X148966667Y-104355514D02*
X148900000Y-104322181D01*
X148900000Y-104322181D02*
X148866667Y-104288847D01*
X148866667Y-104288847D02*
X148833333Y-104222181D01*
X148833333Y-104222181D02*
X148800000Y-104088847D01*
X148800000Y-104088847D02*
X148800000Y-103922181D01*
X148800000Y-103922181D02*
X148833333Y-103788847D01*
X148833333Y-103788847D02*
X148866667Y-103722181D01*
X148866667Y-103722181D02*
X148900000Y-103688847D01*
X148900000Y-103688847D02*
X148966667Y-103655514D01*
X149466667Y-103722181D02*
X149500000Y-103688847D01*
X149500000Y-103688847D02*
X149566667Y-103655514D01*
X149566667Y-103655514D02*
X149733334Y-103655514D01*
X149733334Y-103655514D02*
X149800000Y-103688847D01*
X149800000Y-103688847D02*
X149833334Y-103722181D01*
X149833334Y-103722181D02*
X149866667Y-103788847D01*
X149866667Y-103788847D02*
X149866667Y-103855514D01*
X149866667Y-103855514D02*
X149833334Y-103955514D01*
X149833334Y-103955514D02*
X149433334Y-104355514D01*
X149433334Y-104355514D02*
X149866667Y-104355514D01*
X150466667Y-103888847D02*
X150466667Y-104355514D01*
X150300001Y-103622181D02*
X150133334Y-104122181D01*
X150133334Y-104122181D02*
X150566667Y-104122181D01*
D14*
%TO.C,J3*%
X139700000Y-107700000D02*
X142300000Y-107700000D01*
X139700000Y-110300000D02*
X139700000Y-107700000D01*
X142300000Y-110300000D02*
X139700000Y-110300000D01*
X142300000Y-110300000D02*
X142300000Y-107700000D01*
%TO.C,J2*%
X134700000Y-107700000D02*
X137300000Y-107700000D01*
X134700000Y-110300000D02*
X134700000Y-107700000D01*
X137300000Y-110300000D02*
X134700000Y-110300000D01*
X137300000Y-110300000D02*
X137300000Y-107700000D01*
%TO.C,J7*%
X159700000Y-107700000D02*
X162300000Y-107700000D01*
X159700000Y-110300000D02*
X159700000Y-107700000D01*
X162300000Y-110300000D02*
X159700000Y-110300000D01*
X162300000Y-110300000D02*
X162300000Y-107700000D01*
%TO.C,J5*%
X149700000Y-107700000D02*
X152300000Y-107700000D01*
X149700000Y-110300000D02*
X149700000Y-107700000D01*
X152300000Y-110300000D02*
X149700000Y-110300000D01*
X152300000Y-110300000D02*
X152300000Y-107700000D01*
%TO.C,J4*%
X144700000Y-107700000D02*
X147300000Y-107700000D01*
X144700000Y-110300000D02*
X144700000Y-107700000D01*
X147300000Y-110300000D02*
X144700000Y-110300000D01*
X147300000Y-110300000D02*
X147300000Y-107700000D01*
%TO.C,J6*%
X154700000Y-107700000D02*
X157300000Y-107700000D01*
X154700000Y-110300000D02*
X154700000Y-107700000D01*
X157300000Y-110300000D02*
X154700000Y-110300000D01*
X157300000Y-110300000D02*
X157300000Y-107700000D01*
%TD*%
M02*
